# xmcd CD database file
# Copyright (C) 1993-1998 Ti Kan
# 
# Track frame offsets:
#     150
#     12347
#     25652
#     36530
#     49497
#     63790
#     78080
#     91895
#     104105
#     116262
#     128230
#     138567
#     151852
#     163925
#     176810
#     190302
#     202697
#     214472
#     227240
#     249075
#     259557
#     280862
#     291482
#     305727
# 
# Disc length: 4325 seconds
# 
# Revision: 1
# Processed by: cddbd v1.4b41PL1 Copyright (c) Steve Scherf et al.
# Submitted via: DiscPlay 4.0.4
# 
DISCID=5c10e318
DTITLE=Little Walter - Blues With A Feeling
DYEAR=1900
DGENRE=
TTITLE0=Juke
TTITLE1=Can't Hold Out Much Longer
TTITLE2=Blue Midnight
TTITLE3=Mean Old World
TTITLE4=Sad Hours
TTITLE5=Quarter To Twelve
TTITLE6=Blues With A Feeling
TTITLE7=Last Night
TTITLE8=Mellow Down Easy
TTITLE9=My Babe
TTITLE10=Hate To See You
TTITLE11=Going Down Slow
TTITLE12=It's Too Late, Brother
TTITLE13=Everybody Needs Somebody
TTITLE14=Confessin' The Blues
TTITLE15=Key To The Highway
TTITLE16=Walkin' On
TTITLE17=Everything's Going To Be Alright
TTITLE18=Blue And Lonesome
TTITLE19=I Don't Play
TTITLE20=Peppers Thing
TTITLE21=Off The Wall
TTITLE22=You're So Fine
TTITLE23=Rocker
EXTD=
EXTT0=
EXTT1=
EXTT2=
EXTT3=
EXTT4=
EXTT5=
EXTT6=
EXTT7=
EXTT8=
EXTT9=
EXTT10=
EXTT11=
EXTT12=
EXTT13=
EXTT14=
EXTT15=
EXTT16=
EXTT17=
EXTT18=
EXTT19=
EXTT20=
EXTT21=
EXTT22=
EXTT23=
PLAYORDER=
